# xmcd
# 
# Track frame offsets:
#     187
#     14127
#     29700
#     53055
#     65247
#     82795
#     100692
#     118962
#     138810
#     148867
# 
# Disc length: 2189
# 
# Revision: 1
# Processed by: cddbd v1.5.2PL0 Copyright (c) Steve Scherf et al.
# Submitted via: BonkEnc v1.0.8
# 
DISCID=91088b0a
DTITLE=Paul Desmond - Bridge Over Troubled Water
DYEAR=1969
DGENRE=Jazz
TTITLE0=El Condor Pasa
TTITLE1=So Long, Frank Lloyd Wright
TTITLE2=The 59th Street Bridge Song (Feelin' Groovy)
TTITLE3=Mrs. Robinson
TTITLE4=Old Friends
TTITLE5=America
TTITLE6=For Emily, Whenever I May Find Her
TTITLE7=Scarborough Fair - Canticle
TTITLE8=Cecilia
TTITLE9=Bridge Over Troubled Water
EXTD=YEAR: 1969
EXTT0=
EXTT1=
EXTT2=
EXTT3=
EXTT4=
EXTT5=
EXTT6=
EXTT7=
EXTT8=
EXTT9=
PLAYORDER=
